<svg width="78" height="114" viewBox="0 0 78 114" fill="none" xmlns="http://www.w3.org/2000/svg">
<path d="M0 10.198V20.4348L8.658 25.4368C13.416 28.1899 17.433 30.4776 17.589 30.5552C18.018 30.749 30.615 23.6919 30.615 23.2654C30.615 22.9939 26.715 20.5123 21.957 17.7592L13.26 12.6797V6.35925V6.35961e-05H6.63H0V10.198Z" fill="white"/>
<path d="M64.662 6.43675L64.545 12.9123L42.9 24.5061C31.005 30.8653 18.993 37.2633 16.224 38.698C8.853 42.498 4.836 46.647 2.184 53.1225C0.273 57.8143 0 60.2184 0 73.2857C0 79.8776 0.117 85.3061 0.234 85.3061C0.39 85.3061 3.471 83.6776 7.176 81.7C10.842 79.6837 19.656 74.9531 26.715 71.1531C33.813 67.3531 45.201 61.1878 52.026 57.5041C58.851 53.8204 64.545 50.8735 64.662 50.9898C64.779 51.0674 64.545 52.3469 64.194 53.7816C63.414 56.9225 61.386 60.102 59.124 61.6143C58.227 62.1959 51.987 65.6857 45.24 69.3306C38.493 72.9755 25.584 79.9551 16.575 84.802L0.195 93.6429L0.078 103.841L0 114H6.63H13.26V107.796C13.26 101.786 13.299 101.592 14.157 101.049C15.171 100.429 43.134 85.3449 56.355 78.3265C61.308 75.6898 66.027 73.0918 66.924 72.4714C69.81 70.5327 73.203 66.5 74.841 63.0878C77.688 57.3102 77.766 56.8061 77.922 42.149C78 34.9755 77.883 29.0816 77.727 29.0816C77.415 29.0816 64.428 36.0225 27.885 55.6429C20.826 59.4429 14.703 62.7388 14.352 62.9714C14.001 63.1653 13.572 63.2429 13.455 63.1265C12.909 62.6225 14.508 57.8918 15.912 55.8755C18.096 52.6959 17.277 53.1612 44.07 38.7755C49.764 35.7123 59.709 30.3612 66.222 26.8714L78 20.4735V10.2368V1.93119e-05H71.37H64.74L64.662 6.43675Z" fill="white"/>
<path d="M53.8591 86.8184C50.3491 88.7184 47.3461 90.4245 47.1511 90.6184C46.9561 90.8122 50.5831 93.1776 55.7701 96.1633L64.7401 101.398V107.68V114H71.3701H78.0001L77.9221 103.841L77.8051 93.6429L69.2251 88.5633C64.5061 85.7327 60.5671 83.4061 60.4501 83.4061C60.3331 83.4061 57.3691 84.9571 53.8591 86.8184Z" fill="white"/>
</svg>
